<svg id="svg" version="1.1" xmlns="http://www.w3.org/2000/svg" xmlns:xlink="http://www.w3.org/1999/xlink" width="400" height="799.3836671802773" viewBox="0, 0, 400,799.3836671802773"><g id="svgg"><path id="path0" d="M0.000 399.600 L 0.000 799.200 199.600 799.200 L 399.200 799.200 399.200 484.467 C 399.200 232.957,399.100 169.729,398.700 169.713 C 398.307 169.697,371.557 158.392,365.874 155.841 C 361.436 153.848,357.172 152.000,357.011 152.000 C 356.908 152.000,355.873 151.566,354.712 151.036 C 353.550 150.505,349.360 148.692,345.400 147.005 C 341.440 145.319,337.660 143.695,337.000 143.397 C 336.340 143.098,334.000 142.100,331.800 141.179 C 329.600 140.258,327.080 139.177,326.200 138.777 C 325.320 138.378,323.430 137.574,322.000 136.991 C 320.570 136.407,318.680 135.602,317.800 135.201 C 315.261 134.043,312.894 133.019,308.600 131.221 C 306.400 130.300,304.060 129.302,303.400 129.004 C 299.775 127.366,291.803 124.000,291.549 124.000 C 291.386 124.000,291.196 124.495,291.127 125.100 L 291.000 126.200 286.400 126.200 C 281.291 126.200,244.526 125.423,219.800 124.793 C 196.966 124.211,171.274 123.638,148.400 123.202 C 137.510 122.994,121.850 122.641,113.600 122.418 C 105.350 122.195,84.560 121.711,67.400 121.341 C 46.098 120.883,36.104 120.532,35.897 120.235 C 35.730 119.996,35.686 118.900,35.798 117.800 C 35.910 116.700,36.188 104.910,36.415 91.600 C 36.643 78.290,37.000 61.550,37.209 54.400 C 37.419 47.250,37.593 37.710,37.596 33.200 C 37.600 28.690,37.721 22.138,37.866 18.640 L 38.130 12.279 50.765 12.543 C 57.714 12.687,70.150 12.983,78.400 13.200 C 86.650 13.417,106.450 13.866,122.400 14.198 C 138.350 14.531,158.420 14.985,167.000 15.208 C 175.580 15.431,191.330 15.790,202.000 16.006 C 268.132 17.341,292.954 18.033,293.283 18.549 C 293.439 18.794,293.488 19.355,293.391 19.797 C 293.295 20.239,293.032 32.480,292.807 47.000 C 292.582 61.520,292.287 74.777,292.151 76.460 C 291.803 80.765,291.987 80.812,298.200 78.006 C 298.640 77.807,301.610 76.573,304.800 75.263 C 307.990 73.954,313.300 71.764,316.600 70.398 C 319.900 69.032,325.030 66.928,328.000 65.724 C 330.970 64.520,334.390 63.111,335.600 62.594 C 336.810 62.076,339.870 60.812,342.400 59.785 C 347.009 57.913,349.105 57.048,350.600 56.399 C 351.040 56.208,353.470 55.211,356.000 54.184 C 358.530 53.157,361.140 52.083,361.800 51.797 C 362.460 51.511,365.070 50.441,367.600 49.420 C 370.130 48.399,372.560 47.397,373.000 47.195 C 373.440 46.992,376.950 45.542,380.800 43.974 C 384.650 42.405,388.340 40.891,389.000 40.608 C 389.660 40.325,391.820 39.433,393.800 38.624 C 395.780 37.816,397.805 36.955,398.300 36.710 L 399.200 36.265 399.200 18.132 L 399.200 0.000 199.600 0.000 L 0.000 0.000 0.000 399.600 M81.471 181.223 C 110.364 185.133,126.550 224.081,111.765 254.122 C 108.537 260.681,104.136 266.228,98.841 270.411 C 95.793 272.819,91.534 275.176,88.400 276.189 C 87.190 276.581,85.773 277.065,85.250 277.265 C 83.323 278.003,76.403 278.394,72.480 277.988 C 58.565 276.545,46.038 266.124,39.557 250.600 C 39.185 249.709,37.947 245.857,37.242 243.400 C 35.207 236.303,35.192 222.858,37.212 215.800 C 40.497 204.322,44.812 197.099,52.639 189.980 C 55.789 187.115,62.519 183.232,65.450 182.588 C 66.083 182.449,67.059 182.163,67.620 181.952 C 70.317 180.940,76.840 180.597,81.471 181.223 M312.410 249.100 C 312.415 277.205,312.411 360.427,312.400 434.038 L 312.381 567.876 315.090 568.586 C 316.581 568.977,318.610 569.529,319.600 569.812 C 320.590 570.095,322.480 570.633,323.800 571.008 C 328.383 572.308,337.410 575.361,339.800 576.418 C 340.240 576.613,342.202 577.424,344.161 578.221 C 346.119 579.017,348.009 579.825,348.361 580.016 C 348.712 580.206,350.260 580.976,351.800 581.726 C 353.340 582.476,355.230 583.446,356.000 583.883 C 356.770 584.320,358.480 585.285,359.800 586.029 C 409.494 614.010,391.391 656.419,321.400 675.991 C 315.000 677.781,301.730 680.828,297.800 681.411 C 296.920 681.541,295.390 681.821,294.400 682.031 C 290.930 682.769,279.217 684.275,271.200 685.013 C 260.647 685.985,251.821 686.358,239.400 686.356 C 215.731 686.353,197.686 684.704,176.200 680.582 C 172.098 679.795,160.218 677.002,158.400 676.397 C 157.850 676.214,156.320 675.757,155.000 675.383 C 150.039 673.974,138.704 670.044,135.400 668.587 C 134.740 668.296,133.300 667.665,132.200 667.186 C 128.565 665.601,119.830 661.170,119.178 660.580 C 118.825 660.261,118.380 660.000,118.189 660.000 C 117.794 660.000,113.288 657.035,110.000 654.611 C 101.240 648.153,95.175 640.762,91.940 632.600 C 84.446 613.695,101.818 591.416,134.400 578.145 C 136.270 577.383,138.160 576.612,138.600 576.430 C 140.935 575.466,142.055 575.063,146.908 573.447 C 153.848 571.135,164.745 568.000,165.844 568.000 C 166.105 568.000,166.018 487.351,165.757 487.090 C 165.623 486.956,165.218 487.011,164.857 487.212 C 164.496 487.413,161.320 488.759,157.800 490.204 C 154.280 491.650,151.040 492.994,150.600 493.191 C 150.160 493.388,147.730 494.389,145.200 495.416 C 142.670 496.444,139.837 497.625,138.904 498.042 C 137.972 498.459,137.115 498.800,137.000 498.800 C 136.885 498.800,135.938 499.181,134.896 499.647 C 132.234 500.835,131.368 501.200,124.600 503.980 C 121.300 505.336,118.240 506.606,117.800 506.803 C 116.932 507.191,104.186 512.477,99.000 514.598 C 94.059 516.619,85.891 520.008,85.000 520.407 C 82.770 521.403,81.243 521.910,81.050 521.717 C 80.317 520.984,81.340 388.400,82.079 388.400 C 82.294 388.400,83.637 388.940,85.063 389.600 C 86.489 390.260,87.751 390.800,87.867 390.800 C 87.984 390.800,88.646 391.057,89.340 391.370 C 93.128 393.084,95.245 394.000,95.416 394.000 C 95.641 394.000,99.076 395.494,100.103 396.038 C 100.490 396.243,102.200 396.964,103.903 397.640 C 105.606 398.316,107.990 399.323,109.200 399.878 C 110.410 400.432,112.300 401.240,113.400 401.674 C 114.500 402.108,116.030 402.737,116.800 403.072 C 117.570 403.407,118.560 403.833,119.000 404.019 C 119.440 404.204,120.700 404.736,121.800 405.200 C 122.900 405.664,124.160 406.204,124.600 406.400 C 127.856 407.850,129.866 408.718,133.000 410.026 C 138.966 412.517,142.555 414.027,143.400 414.401 C 156.154 420.060,165.662 423.903,165.829 423.466 C 165.926 423.210,165.960 402.480,165.903 377.400 L 165.800 331.800 164.800 331.680 C 146.516 329.484,132.061 309.196,134.318 288.899 C 134.804 284.524,134.881 284.190,136.455 279.600 C 140.614 267.472,150.760 258.654,164.400 255.313 L 165.800 254.970 165.903 226.485 L 166.005 198.000 239.203 198.000 L 312.400 198.000 312.410 249.100 M107.651 694.198 C 112.133 694.527,117.060 694.987,118.600 695.222 C 126.226 696.384,129.103 696.873,130.200 697.197 C 130.860 697.392,132.120 697.671,133.000 697.817 C 133.880 697.963,135.590 698.342,136.800 698.658 C 185.697 711.466,201.016 741.359,170.291 764.013 C 167.195 766.296,162.115 769.370,159.800 770.362 C 159.360 770.551,157.830 771.256,156.400 771.930 C 151.565 774.208,144.574 776.631,138.000 778.308 C 129.700 780.426,129.165 780.535,122.000 781.571 C 120.350 781.810,118.010 782.178,116.800 782.388 C 106.228 784.231,78.553 783.586,66.600 781.219 C 65.500 781.001,63.160 780.544,61.400 780.202 C 58.467 779.634,55.271 778.873,52.200 778.012 C 48.380 776.941,44.897 775.903,44.200 775.628 C 43.760 775.454,41.870 774.721,40.000 774.000 C -11.757 754.024,-4.014 713.591,54.400 698.800 C 60.970 697.137,62.328 696.873,72.851 695.216 C 74.309 694.986,78.359 694.612,81.851 694.384 C 85.343 694.155,88.470 693.907,88.800 693.831 C 90.380 693.467,100.337 693.661,107.651 694.198 " stroke="none" fill="#d3dbf2" fill-rule="evenodd"></path><path id="path1" d="M37.997 14.241 C 37.990 18.089,37.208 57.289,36.820 73.200 C 36.603 82.110,36.312 96.465,36.173 105.100 L 35.921 120.800 42.660 120.807 C 46.367 120.810,55.970 120.993,64.000 121.213 C 72.030 121.433,87.060 121.782,97.400 121.989 C 124.055 122.523,150.718 123.120,170.000 123.616 C 179.130 123.850,194.790 124.210,204.800 124.415 C 214.810 124.620,236.320 125.100,252.600 125.481 C 268.880 125.862,284.180 126.180,286.600 126.187 L 291.000 126.200 291.120 125.166 C 291.282 123.770,291.439 123.859,281.000 119.415 C 271.291 115.281,269.424 114.475,266.200 113.024 C 265.100 112.529,258.939 109.891,252.509 107.162 C 246.079 104.433,240.863 102.051,240.919 101.869 C 241.013 101.564,245.717 99.541,257.000 94.953 C 259.420 93.969,261.760 93.002,262.200 92.804 C 262.640 92.605,265.700 91.347,269.000 90.007 C 272.300 88.667,275.360 87.405,275.800 87.202 C 278.023 86.175,291.238 80.800,291.539 80.800 C 292.038 80.800,293.162 41.373,293.192 22.773 L 293.200 18.146 272.300 17.655 C 260.805 17.385,244.200 16.988,235.400 16.773 C 226.600 16.557,206.980 16.118,191.800 15.796 C 142.381 14.747,129.581 14.460,75.800 13.197 C 66.560 12.980,54.275 12.685,48.500 12.542 L 38.000 12.282 37.997 14.241 M75.300 181.087 C 75.905 181.178,76.895 181.178,77.500 181.087 C 78.105 180.995,77.610 180.920,76.400 180.920 C 75.190 180.920,74.695 180.995,75.300 181.087 M69.024 181.650 C 66.707 182.193,66.692 182.520,69.000 182.182 C 71.509 181.815,73.131 181.243,71.600 181.266 C 71.050 181.274,69.891 181.447,69.024 181.650 M82.000 181.657 C 90.621 183.672,97.708 187.475,102.733 192.781 C 104.141 194.268,109.600 201.399,109.600 201.751 C 109.600 202.216,111.316 204.818,111.501 204.633 C 111.855 204.278,107.936 198.312,105.132 194.937 C 99.126 187.707,89.845 182.247,82.200 181.446 L 80.200 181.236 82.000 181.657 M62.676 183.774 C 53.190 187.915,44.789 196.718,40.205 207.318 C 38.735 210.719,37.429 214.762,37.710 215.044 C 37.820 215.153,38.307 213.928,38.794 212.321 C 41.579 203.119,48.000 193.858,55.359 188.428 C 57.754 186.661,64.296 183.205,65.268 183.194 C 65.561 183.191,66.070 183.013,66.400 182.800 C 67.780 181.908,65.709 182.450,62.676 183.774 M165.903 226.490 L 165.800 254.981 164.800 255.276 C 164.250 255.438,163.284 255.676,162.653 255.805 C 162.022 255.934,161.587 256.120,161.686 256.220 C 161.786 256.319,162.701 256.245,163.721 256.054 C 164.741 255.864,165.670 255.804,165.787 255.921 C 165.904 256.038,166.000 273.039,166.000 293.702 L 166.000 331.270 164.300 331.008 C 161.859 330.630,158.955 329.668,156.242 328.339 C 154.945 327.703,153.793 327.274,153.682 327.385 C 153.086 327.981,162.888 331.600,165.099 331.600 L 166.000 331.600 166.000 377.788 L 166.000 423.977 168.300 425.031 C 169.565 425.611,171.500 426.435,172.600 426.862 C 173.700 427.288,175.320 427.968,176.200 428.373 C 177.080 428.777,178.970 429.590,180.400 430.179 C 181.830 430.768,183.540 431.494,184.200 431.793 C 185.768 432.503,190.886 434.679,207.200 441.574 C 214.570 444.688,220.960 447.412,221.400 447.627 C 221.840 447.841,226.160 449.695,231.000 451.746 C 235.840 453.798,239.800 455.634,239.800 455.827 C 239.800 456.116,236.196 457.759,230.800 459.929 C 228.444 460.876,214.895 466.496,213.800 466.979 C 213.140 467.271,209.450 468.799,205.600 470.374 C 201.750 471.949,198.240 473.408,197.800 473.615 C 196.824 474.074,185.413 478.805,181.000 480.580 C 179.240 481.288,177.170 482.153,176.400 482.501 C 175.630 482.850,172.975 483.977,170.500 485.005 L 166.000 486.875 166.000 542.638 L 166.000 598.400 239.200 598.400 L 312.400 598.400 312.354 451.900 C 312.328 371.325,312.236 305.760,312.150 306.200 C 311.311 310.458,310.926 311.743,309.757 314.185 C 297.756 339.248,259.736 327.137,263.952 299.595 C 268.288 271.274,308.663 271.446,312.133 299.800 C 312.214 300.460,312.307 277.825,312.340 249.500 L 312.400 198.000 239.203 198.000 L 166.005 198.000 165.903 226.490 M111.600 205.332 C 111.600 205.493,112.072 206.744,112.649 208.112 C 113.226 209.480,113.953 211.455,114.265 212.500 C 114.900 214.632,115.414 215.085,114.986 213.135 C 114.437 210.636,111.600 204.098,111.600 205.332 M115.382 216.400 C 115.533 217.390,115.864 218.830,116.118 219.600 C 116.794 221.651,116.748 236.746,116.056 239.800 C 115.334 242.991,114.076 247.434,113.352 249.350 C 113.030 250.202,112.860 250.993,112.974 251.107 C 113.209 251.342,113.205 251.351,114.604 247.000 C 117.212 238.889,117.975 225.747,116.276 218.212 C 115.476 214.665,114.959 213.618,115.382 216.400 M37.059 216.670 C 36.709 217.866,36.280 221.416,36.512 221.200 C 36.802 220.929,37.640 216.306,37.435 216.102 C 37.346 216.013,37.177 216.268,37.059 216.670 M35.854 223.856 C 35.537 226.170,35.605 234.188,35.955 235.800 C 36.099 236.460,36.213 233.625,36.208 229.500 C 36.199 221.148,36.207 221.280,35.854 223.856 M36.643 240.000 C 36.779 241.210,37.045 242.470,37.236 242.800 C 37.670 243.553,37.217 239.718,36.739 238.600 C 36.529 238.108,36.492 238.647,36.643 240.000 M37.600 244.368 C 37.600 246.525,42.688 257.559,45.269 261.000 C 49.719 266.932,56.620 272.897,60.900 274.511 C 62.171 274.990,61.628 274.431,60.033 273.617 C 51.140 269.080,42.430 258.207,38.960 247.311 C 37.990 244.264,37.600 243.420,37.600 244.368 M111.385 253.874 C 107.377 262.373,98.623 271.348,91.337 274.432 C 90.272 274.883,89.040 275.406,88.600 275.595 C 85.154 277.075,82.888 277.399,76.200 277.369 C 69.118 277.337,69.116 277.336,62.600 274.972 C 62.044 274.771,61.922 274.811,62.200 275.106 C 64.779 277.839,80.691 278.847,86.942 276.673 C 95.283 273.773,101.635 269.045,107.111 261.660 C 109.388 258.589,113.037 252.104,112.686 251.752 C 112.574 251.640,111.989 252.595,111.385 253.874 M157.986 257.328 C 156.768 257.808,155.092 258.605,154.263 259.100 C 153.433 259.595,152.661 260.000,152.547 260.000 C 148.588 260.000,134.437 278.962,135.726 282.539 C 135.817 282.793,136.112 282.202,136.381 281.227 C 139.035 271.612,148.206 261.646,157.800 257.952 C 159.560 257.275,161.075 256.648,161.167 256.560 C 161.591 256.152,159.993 256.538,157.986 257.328 M134.833 285.220 C 134.302 287.696,134.263 289.474,134.768 288.200 C 135.152 287.229,135.700 283.200,135.447 283.200 C 135.348 283.200,135.071 284.109,134.833 285.220 M134.131 293.400 C 134.133 294.940,134.205 295.521,134.292 294.691 C 134.379 293.861,134.377 292.601,134.289 291.891 C 134.200 291.181,134.129 291.860,134.131 293.400 M134.644 300.200 C 134.773 301.520,135.036 302.870,135.230 303.200 C 135.643 303.903,135.244 300.324,134.740 298.800 C 134.535 298.180,134.498 298.713,134.644 300.200 M135.600 304.628 C 135.600 309.420,144.247 321.401,150.992 325.953 C 154.151 328.085,153.409 327.118,149.938 324.579 C 143.738 320.044,138.177 312.276,136.423 305.700 C 135.961 303.968,135.600 303.498,135.600 304.628 " stroke="none" fill="#9c9ca4" fill-rule="evenodd"></path><path id="path2" d="M164.600 568.681 C 158.161 570.195,141.919 575.335,137.800 577.163 C 137.360 577.358,136.010 577.916,134.800 578.402 C 88.764 596.915,77.568 628.494,108.391 652.891 C 113.580 656.997,129.570 666.400,131.365 666.400 C 131.499 666.400,132.372 666.750,133.304 667.178 C 138.381 669.509,149.092 673.369,155.200 675.068 C 164.676 677.705,174.298 679.903,182.800 681.371 C 190.801 682.754,194.426 683.261,201.600 684.000 C 203.690 684.216,207.020 684.572,209.000 684.792 C 220.304 686.047,248.986 686.260,264.000 685.200 C 274.627 684.450,285.028 683.194,294.400 681.530 C 304.860 679.672,307.124 679.205,314.400 677.397 C 315.610 677.097,317.410 676.655,318.400 676.416 C 319.390 676.177,320.650 675.820,321.200 675.624 C 321.750 675.427,324.090 674.698,326.400 674.004 C 331.536 672.461,333.981 671.644,334.895 671.165 C 335.277 670.964,335.789 670.800,336.034 670.800 C 336.279 670.800,337.046 670.542,337.740 670.227 C 338.433 669.912,340.620 669.002,342.600 668.206 C 401.821 644.387,402.292 602.005,343.600 578.402 C 342.390 577.916,341.040 577.357,340.600 577.160 C 336.094 575.148,320.554 570.260,313.500 568.638 L 312.400 568.385 312.400 583.392 L 312.400 598.400 239.200 598.400 L 166.000 598.400 166.000 583.400 C 166.000 575.150,165.865 568.421,165.700 568.446 C 165.535 568.472,165.040 568.577,164.600 568.681 M90.600 694.236 C 89.500 694.312,85.630 694.577,82.000 694.825 C 71.946 695.513,60.031 697.496,52.000 699.819 C 50.790 700.169,49.260 700.597,48.600 700.770 C 45.951 701.465,39.298 703.931,35.802 705.514 C 8.812 717.735,-0.925 735.732,10.274 752.697 C 13.155 757.063,21.386 764.551,25.200 766.277 C 25.530 766.426,26.880 767.194,28.200 767.983 C 32.739 770.697,41.036 774.259,46.800 775.970 C 48.450 776.459,50.250 777.014,50.800 777.202 C 51.948 777.595,61.126 779.730,64.400 780.366 C 80.125 783.418,104.306 783.983,119.000 781.641 C 127.737 780.249,130.387 779.746,135.200 778.566 C 143.030 776.646,143.729 776.431,152.000 773.402 C 163.731 769.106,175.791 760.560,181.076 752.798 C 192.611 735.859,181.569 716.085,154.400 705.023 C 152.970 704.441,151.440 703.796,151.000 703.589 C 149.802 703.028,140.863 700.099,138.800 699.592 C 131.719 697.851,128.440 697.183,122.000 696.167 C 114.163 694.930,96.381 693.837,90.600 694.236 " stroke="none" fill="#6ca3fb" fill-rule="evenodd"></path><path id="path3" d="M399.200 399.600 C 399.200 665.733,399.334 799.200,399.600 799.200 C 399.866 799.200,400.000 665.733,400.000 399.600 C 400.000 133.467,399.866 0.000,399.600 0.000 C 399.334 0.000,399.200 133.467,399.200 399.600 M72.332 181.402 C 72.221 181.512,71.066 181.795,69.765 182.030 C 56.046 184.509,43.719 196.636,38.692 212.600 C 30.376 239.005,42.747 268.073,65.699 276.060 C 71.844 278.198,83.070 277.970,88.600 275.595 C 89.040 275.406,90.272 274.883,91.337 274.432 C 98.888 271.236,107.414 262.341,111.686 253.200 C 113.587 249.133,114.421 246.606,115.977 240.200 C 117.128 235.463,116.936 224.048,115.590 217.200 C 114.896 213.671,112.077 206.071,110.511 203.508 C 110.010 202.687,109.600 201.910,109.600 201.781 C 109.600 201.406,104.207 194.338,102.733 192.781 C 96.099 185.775,85.528 181.201,75.967 181.200 C 74.078 181.200,72.443 181.291,72.332 181.402 M163.606 256.063 C 138.564 260.640,126.260 292.874,141.007 315.267 C 146.212 323.170,155.886 329.707,164.300 331.008 L 166.000 331.270 166.000 293.659 C 166.000 272.972,165.865 255.977,165.700 255.891 C 165.535 255.805,164.593 255.882,163.606 256.063 M284.208 278.401 C 265.960 281.687,257.549 303.367,268.737 318.283 C 282.987 337.280,312.358 326.807,312.158 302.800 C 312.031 287.621,298.517 275.825,284.208 278.401 " stroke="none" fill="#57576e" fill-rule="evenodd"></path><path id="path4" d="M50.700 12.682 C 51.195 12.778,52.005 12.778,52.500 12.682 C 52.995 12.587,52.590 12.509,51.600 12.509 C 50.610 12.509,50.205 12.587,50.700 12.682 M68.305 13.083 C 68.802 13.179,69.522 13.175,69.905 13.075 C 70.287 12.975,69.880 12.896,69.000 12.901 C 68.120 12.905,67.807 12.987,68.305 13.083 M81.900 13.482 C 82.395 13.578,83.205 13.578,83.700 13.482 C 84.195 13.387,83.790 13.309,82.800 13.309 C 81.810 13.309,81.405 13.387,81.900 13.482 M119.700 14.287 C 120.305 14.378,121.295 14.378,121.900 14.287 C 122.505 14.195,122.010 14.120,120.800 14.120 C 119.590 14.120,119.095 14.195,119.700 14.287 M137.505 14.683 C 138.002 14.779,138.722 14.775,139.105 14.675 C 139.487 14.575,139.080 14.496,138.200 14.501 C 137.320 14.505,137.007 14.587,137.505 14.683 M157.900 15.082 C 158.395 15.178,159.205 15.178,159.700 15.082 C 160.195 14.987,159.790 14.909,158.800 14.909 C 157.810 14.909,157.405 14.987,157.900 15.082 M171.900 15.482 C 172.395 15.578,173.205 15.578,173.700 15.482 C 174.195 15.387,173.790 15.309,172.800 15.309 C 171.810 15.309,171.405 15.387,171.900 15.482 M227.105 16.683 C 227.602 16.779,228.322 16.775,228.705 16.675 C 229.087 16.575,228.680 16.496,227.800 16.501 C 226.920 16.505,226.607 16.587,227.105 16.683 M244.300 17.082 C 244.795 17.178,245.605 17.178,246.100 17.082 C 246.595 16.987,246.190 16.909,245.200 16.909 C 244.210 16.909,243.805 16.987,244.300 17.082 M264.905 17.487 C 265.514 17.579,266.414 17.577,266.905 17.482 C 267.397 17.387,266.900 17.311,265.800 17.314 C 264.700 17.317,264.297 17.395,264.905 17.487 M279.100 17.882 C 279.595 17.978,280.405 17.978,280.900 17.882 C 281.395 17.787,280.990 17.709,280.000 17.709 C 279.010 17.709,278.605 17.787,279.100 17.882 M37.709 22.400 C 37.709 23.390,37.787 23.795,37.882 23.300 C 37.978 22.805,37.978 21.995,37.882 21.500 C 37.787 21.005,37.709 21.410,37.709 22.400 M398.000 36.809 C 397.670 37.008,395.780 37.829,393.800 38.633 C 391.820 39.436,389.660 40.325,389.000 40.608 C 388.340 40.891,384.650 42.405,380.800 43.974 C 376.950 45.542,373.440 46.992,373.000 47.195 C 372.560 47.397,370.130 48.399,367.600 49.420 C 365.070 50.441,362.460 51.511,361.800 51.797 C 361.140 52.083,358.530 53.160,356.000 54.191 C 353.470 55.222,350.770 56.333,350.000 56.660 C 349.230 56.987,348.240 57.406,347.800 57.592 C 347.360 57.778,344.930 58.768,342.400 59.792 C 339.870 60.815,336.810 62.076,335.600 62.594 C 334.390 63.111,330.970 64.520,328.000 65.724 C 325.030 66.928,319.900 69.032,316.600 70.398 C 313.300 71.764,307.990 73.954,304.800 75.263 C 301.610 76.573,298.640 77.807,298.200 78.006 C 295.614 79.174,292.423 80.290,292.227 80.094 C 292.102 79.969,292.000 80.077,292.000 80.333 C 292.000 80.590,291.818 80.800,291.596 80.800 C 291.254 80.800,278.249 86.071,275.800 87.202 C 275.360 87.405,272.300 88.667,269.000 90.007 C 265.700 91.347,262.640 92.605,262.200 92.804 C 261.760 93.002,259.420 93.969,257.000 94.953 C 245.717 99.541,241.013 101.564,240.919 101.869 C 240.863 102.051,246.079 104.433,252.509 107.162 C 258.939 109.891,265.100 112.528,266.200 113.023 C 269.044 114.302,269.989 114.711,280.000 119.000 C 284.931 121.113,289.514 123.081,290.183 123.374 C 290.852 123.667,293.650 124.851,296.400 126.005 C 299.150 127.158,302.120 128.427,303.000 128.823 C 303.880 129.220,306.400 130.299,308.600 131.221 C 312.898 133.021,315.266 134.046,317.800 135.201 C 318.680 135.602,320.570 136.407,322.000 136.991 C 323.430 137.574,325.320 138.378,326.200 138.777 C 327.080 139.177,329.600 140.258,331.800 141.179 C 334.000 142.100,336.340 143.098,337.000 143.397 C 337.660 143.695,341.440 145.319,345.400 147.005 C 349.360 148.692,353.550 150.505,354.712 151.036 C 355.873 151.566,356.908 152.000,357.011 152.000 C 357.114 152.000,358.864 152.738,360.899 153.639 C 375.061 159.914,398.599 169.868,398.900 169.710 C 399.292 169.504,399.292 36.393,398.900 36.424 C 398.735 36.436,398.330 36.610,398.000 36.809 M292.514 59.000 C 292.517 60.100,292.595 60.503,292.687 59.895 C 292.779 59.286,292.777 58.386,292.682 57.895 C 292.587 57.403,292.511 57.900,292.514 59.000 M36.920 63.600 C 36.920 64.810,36.995 65.305,37.087 64.700 C 37.178 64.095,37.178 63.105,37.087 62.500 C 36.995 61.895,36.920 62.390,36.920 63.600 M292.120 74.000 C 292.120 75.210,292.195 75.705,292.287 75.100 C 292.378 74.495,292.378 73.505,292.287 72.900 C 292.195 72.295,292.120 72.790,292.120 74.000 M36.109 104.800 C 36.109 105.790,36.187 106.195,36.282 105.700 C 36.378 105.205,36.378 104.395,36.282 103.900 C 36.187 103.405,36.109 103.810,36.109 104.800 M52.300 121.082 C 52.795 121.178,53.605 121.178,54.100 121.082 C 54.595 120.987,54.190 120.909,53.200 120.909 C 52.210 120.909,51.805 120.987,52.300 121.082 M69.500 121.482 C 69.995 121.578,70.805 121.578,71.300 121.482 C 71.795 121.387,71.390 121.309,70.400 121.309 C 69.410 121.309,69.005 121.387,69.500 121.482 M107.500 122.282 C 107.995 122.378,108.805 122.378,109.300 122.282 C 109.795 122.187,109.390 122.109,108.400 122.109 C 107.410 122.109,107.005 122.187,107.500 122.282 M121.305 122.687 C 121.914 122.779,122.814 122.777,123.305 122.682 C 123.797 122.587,123.300 122.511,122.200 122.514 C 121.100 122.517,120.697 122.595,121.305 122.687 M139.105 123.083 C 139.602 123.179,140.322 123.175,140.705 123.075 C 141.087 122.975,140.680 122.896,139.800 122.901 C 138.920 122.905,138.607 122.987,139.105 123.083 M162.300 123.482 C 162.795 123.578,163.605 123.578,164.100 123.482 C 164.595 123.387,164.190 123.309,163.200 123.309 C 162.210 123.309,161.805 123.387,162.300 123.482 M193.905 124.283 C 194.402 124.379,195.122 124.375,195.505 124.275 C 195.887 124.175,195.480 124.096,194.600 124.101 C 193.720 124.105,193.407 124.187,193.905 124.283 M214.700 124.682 C 215.195 124.778,216.005 124.778,216.500 124.682 C 216.995 124.587,216.590 124.509,215.600 124.509 C 214.610 124.509,214.205 124.587,214.700 124.682 M227.705 125.087 C 228.314 125.179,229.214 125.177,229.705 125.082 C 230.197 124.987,229.700 124.911,228.600 124.914 C 227.500 124.917,227.097 124.995,227.705 125.087 M249.105 125.483 C 249.602 125.579,250.322 125.575,250.705 125.475 C 251.087 125.375,250.680 125.296,249.800 125.301 C 248.920 125.305,248.607 125.387,249.105 125.483 M269.305 125.887 C 269.914 125.979,270.814 125.977,271.305 125.882 C 271.797 125.787,271.300 125.711,270.200 125.714 C 269.100 125.717,268.697 125.795,269.305 125.887 M75.500 278.282 C 75.995 278.378,76.805 278.378,77.300 278.282 C 77.795 278.187,77.390 278.109,76.400 278.109 C 75.410 278.109,75.005 278.187,75.500 278.282 M312.540 303.200 C 312.540 305.070,312.609 305.835,312.693 304.900 C 312.777 303.965,312.777 302.435,312.693 301.500 C 312.609 300.565,312.540 301.330,312.540 303.200 M81.454 396.100 C 81.145 406.315,80.775 521.441,81.050 521.717 C 81.243 521.910,82.770 521.403,85.000 520.407 C 85.891 520.008,94.059 516.619,99.000 514.598 C 104.186 512.477,116.932 507.191,117.800 506.803 C 118.240 506.606,121.300 505.336,124.600 503.980 C 131.368 501.200,132.234 500.835,134.896 499.647 C 135.938 499.181,136.885 498.800,137.000 498.800 C 137.115 498.800,137.972 498.459,138.904 498.042 C 139.837 497.625,142.670 496.444,145.200 495.416 C 147.730 494.389,150.160 493.388,150.600 493.191 C 151.040 492.994,154.190 491.681,157.600 490.274 C 164.985 487.227,165.342 487.082,165.600 487.025 C 165.884 486.963,174.721 483.261,176.400 482.501 C 177.170 482.153,179.240 481.288,181.000 480.580 C 185.413 478.805,196.824 474.074,197.800 473.615 C 198.240 473.408,201.750 471.949,205.600 470.374 C 209.450 468.799,213.140 467.271,213.800 466.979 C 214.895 466.496,228.444 460.876,230.800 459.929 C 236.474 457.647,239.736 456.131,239.683 455.800 C 239.649 455.580,235.701 453.739,230.910 451.708 C 226.120 449.678,221.840 447.841,221.400 447.627 C 220.960 447.412,214.570 444.688,207.200 441.574 C 190.886 434.679,185.768 432.503,184.200 431.793 C 183.540 431.494,181.830 430.768,180.400 430.179 C 178.970 429.590,177.080 428.777,176.200 428.373 C 175.320 427.968,173.700 427.288,172.600 426.862 C 171.500 426.435,169.520 425.582,168.200 424.967 C 166.880 424.352,165.620 423.809,165.400 423.761 C 165.180 423.712,161.220 422.063,156.600 420.096 C 149.240 416.963,146.803 415.911,143.400 414.401 C 142.555 414.027,138.966 412.517,133.000 410.026 C 129.866 408.718,127.856 407.850,124.600 406.400 C 124.160 406.204,122.900 405.664,121.800 405.200 C 120.700 404.736,119.440 404.204,119.000 404.019 C 118.560 403.833,117.570 403.407,116.800 403.072 C 116.030 402.737,114.500 402.108,113.400 401.674 C 112.300 401.240,110.410 400.432,109.200 399.878 C 107.990 399.323,105.606 398.316,103.903 397.640 C 102.200 396.964,100.490 396.243,100.103 396.038 C 99.076 395.494,95.641 394.000,95.416 394.000 C 95.245 394.000,93.128 393.084,89.340 391.370 C 88.646 391.057,87.984 390.800,87.867 390.800 C 87.751 390.800,86.489 390.260,85.063 389.600 C 83.637 388.940,82.294 388.400,82.079 388.400 C 81.845 388.400,81.593 391.502,81.454 396.100 M164.200 568.400 L 163.400 568.744 164.200 568.766 C 164.640 568.778,165.270 568.613,165.600 568.400 C 166.395 567.886,165.396 567.886,164.200 568.400 M312.470 568.203 C 312.817 568.551,318.886 570.048,319.096 569.838 C 319.205 569.728,318.778 569.521,318.147 569.378 C 317.516 569.234,316.112 568.865,315.027 568.558 C 312.969 567.976,312.125 567.859,312.470 568.203 M158.800 569.795 C 150.890 571.995,144.672 574.005,144.941 574.274 C 145.040 574.373,147.425 573.718,150.240 572.818 C 153.056 571.918,157.078 570.716,159.180 570.147 C 161.281 569.577,163.075 569.042,163.167 568.956 C 163.540 568.607,162.018 568.899,158.800 569.795 M320.200 570.355 C 321.427 570.879,323.915 571.305,323.200 570.869 C 322.870 570.667,321.880 570.392,321.000 570.258 C 319.958 570.098,319.679 570.132,320.200 570.355 M324.400 571.537 C 324.730 571.741,325.630 572.027,326.400 572.171 C 327.330 572.346,327.599 572.310,327.200 572.063 C 326.870 571.859,325.970 571.573,325.200 571.429 C 324.270 571.254,324.001 571.290,324.400 571.537 M328.000 572.560 C 328.000 572.648,329.395 573.179,331.100 573.739 C 332.805 574.300,335.444 575.219,336.965 575.781 C 338.485 576.344,339.816 576.718,339.922 576.612 C 340.028 576.506,339.864 576.340,339.557 576.244 C 339.251 576.148,337.740 575.613,336.200 575.056 C 329.461 572.617,328.000 572.172,328.000 572.560 M143.200 574.659 C 142.870 574.766,141.970 575.097,141.200 575.393 C 140.430 575.690,139.459 576.042,139.043 576.176 C 138.626 576.309,138.374 576.507,138.481 576.615 C 138.662 576.795,143.991 574.941,144.367 574.566 C 144.577 574.356,143.983 574.403,143.200 574.659 M134.200 578.179 C 129.488 580.169,121.068 584.401,121.319 584.653 C 121.439 584.772,122.316 584.415,123.269 583.859 C 125.691 582.442,136.308 577.600,136.990 577.600 C 137.300 577.600,137.664 577.420,137.800 577.200 C 138.184 576.578,137.641 576.726,134.200 578.179 M340.600 577.200 C 340.736 577.420,341.100 577.600,341.410 577.600 C 342.092 577.600,352.709 582.442,355.131 583.859 C 356.084 584.415,356.950 584.783,357.056 584.677 C 357.262 584.471,356.729 584.172,352.000 581.841 C 350.350 581.028,348.712 580.206,348.361 580.016 C 345.719 578.583,340.223 576.590,340.600 577.200 M114.019 588.853 C 101.831 597.052,92.536 608.131,91.409 615.800 C 91.247 616.904,91.532 616.383,92.328 614.123 C 95.630 604.744,104.417 595.102,116.300 587.819 C 117.675 586.976,118.800 586.222,118.800 586.143 C 118.800 585.739,117.839 586.283,114.019 588.853 M360.366 586.692 C 362.202 588.037,364.764 589.406,363.600 588.420 C 363.050 587.954,361.880 587.215,361.000 586.779 C 359.708 586.138,359.586 586.121,360.366 586.692 M364.800 589.342 C 364.800 589.447,365.745 590.215,366.900 591.050 C 375.542 597.297,380.785 603.098,384.686 610.729 C 385.662 612.638,386.333 613.750,386.178 613.200 C 385.032 609.141,381.241 603.600,376.024 598.354 C 371.955 594.264,364.800 588.519,364.800 589.342 M386.649 615.800 C 387.042 618.175,387.657 619.391,387.357 617.200 C 387.221 616.210,386.946 615.130,386.747 614.800 C 386.514 614.416,386.479 614.777,386.649 615.800 M90.650 618.850 C 90.333 620.433,90.395 626.701,90.740 627.924 C 90.883 628.432,91.000 626.317,91.000 623.224 C 91.000 617.022,91.004 617.078,90.650 618.850 M387.746 623.000 C 387.747 625.200,387.814 626.049,387.895 624.887 C 387.976 623.724,387.976 621.924,387.893 620.887 C 387.811 619.849,387.745 620.800,387.746 623.000 M387.029 628.600 C 385.077 638.977,376.527 649.277,362.562 658.076 C 358.319 660.749,356.379 662.357,359.850 660.324 C 371.612 653.435,380.904 644.470,384.854 636.200 C 386.401 632.963,387.791 628.369,387.492 627.483 C 387.403 627.217,387.194 627.720,387.029 628.600 M91.424 630.600 C 91.555 631.480,91.841 632.380,92.059 632.600 C 92.492 633.035,92.150 631.219,91.533 629.800 C 91.300 629.264,91.264 629.527,91.424 630.600 M92.400 633.552 C 92.400 636.292,101.476 648.305,105.800 651.287 C 106.460 651.743,105.458 650.597,103.572 648.741 C 99.350 644.585,96.007 640.194,93.958 636.116 C 93.101 634.410,92.400 633.257,92.400 633.552 M107.250 652.315 C 107.546 653.131,117.862 660.271,118.224 659.910 C 118.338 659.796,117.042 658.837,115.345 657.779 C 113.648 656.721,111.098 654.966,109.680 653.878 C 108.261 652.791,107.168 652.088,107.250 652.315 M119.200 660.484 C 119.781 661.071,125.080 664.001,126.500 664.519 C 128.068 665.092,127.028 664.368,124.300 662.987 C 122.705 662.180,120.770 661.150,120.000 660.698 C 119.194 660.225,118.854 660.134,119.200 660.484 M354.300 662.825 C 352.595 663.697,351.200 664.492,351.200 664.592 C 351.200 664.967,356.545 662.342,357.380 661.557 C 357.996 660.978,357.567 661.155,354.300 662.825 M130.134 666.208 C 132.962 667.615,134.806 668.318,134.322 667.805 C 134.019 667.484,127.935 664.785,127.604 664.825 C 127.492 664.838,128.630 665.461,130.134 666.208 M348.464 665.664 C 347.509 666.103,346.817 666.550,346.925 666.659 C 347.141 666.874,350.800 665.298,350.800 664.990 C 350.800 664.678,350.293 664.825,348.464 665.664 M342.000 668.443 C 339.910 669.317,337.783 670.205,337.274 670.416 C 336.765 670.627,336.177 670.800,335.969 670.800 C 335.760 670.800,335.277 670.964,334.895 671.165 C 333.976 671.647,331.508 672.471,326.400 674.000 C 321.588 675.441,319.821 676.143,322.000 675.748 C 325.558 675.102,345.103 668.155,346.180 667.153 C 346.866 666.515,345.887 666.817,342.000 668.443 M135.000 668.276 C 135.470 668.738,143.229 671.704,143.433 671.500 C 143.510 671.423,141.899 670.700,139.853 669.893 C 134.798 667.899,134.525 667.808,135.000 668.276 M144.400 671.958 C 144.730 672.142,145.540 672.399,146.200 672.530 L 147.400 672.767 146.200 672.202 C 144.850 671.565,143.323 671.359,144.400 671.958 M147.633 672.963 C 147.967 673.290,152.589 674.799,153.186 674.777 C 153.524 674.764,152.540 674.315,151.000 673.780 C 148.354 672.860,147.257 672.594,147.633 672.963 M154.400 675.161 C 155.231 675.642,157.981 676.144,157.200 675.672 C 156.870 675.473,155.970 675.198,155.200 675.062 C 154.329 674.907,154.027 674.945,154.400 675.161 M158.400 676.340 C 158.730 676.537,159.720 676.814,160.600 676.957 C 161.606 677.120,161.977 677.084,161.600 676.860 C 161.270 676.663,160.280 676.386,159.400 676.243 C 158.394 676.080,158.023 676.116,158.400 676.340 M318.080 676.395 C 316.149 676.852,315.927 677.320,317.800 676.984 C 319.532 676.674,321.126 675.999,320.000 676.053 C 319.670 676.069,318.806 676.223,318.080 676.395 M163.000 677.568 C 163.440 677.743,164.520 677.991,165.400 678.119 L 167.000 678.352 165.400 677.807 C 164.520 677.507,163.440 677.259,163.000 677.256 L 162.200 677.251 163.000 677.568 M313.280 677.595 C 312.554 677.767,311.834 678.034,311.680 678.189 C 311.356 678.516,314.216 678.039,315.400 677.568 L 316.200 677.251 315.400 677.266 C 314.960 677.275,314.006 677.423,313.280 677.595 M167.242 678.576 C 167.886 679.219,188.739 683.029,189.727 682.683 C 189.987 682.592,189.210 682.387,188.000 682.229 C 184.201 681.730,176.295 680.225,170.918 678.976 C 168.461 678.406,166.903 678.236,167.242 678.576 M307.800 678.999 L 306.200 679.536 308.000 679.309 C 308.990 679.184,310.160 678.940,310.600 678.766 C 312.054 678.193,309.592 678.397,307.800 678.999 M299.600 680.641 C 296.663 681.303,296.059 681.521,297.591 681.368 C 298.796 681.247,300.506 680.982,301.391 680.778 C 302.276 680.575,303.720 680.245,304.600 680.045 C 305.974 679.734,306.030 679.684,305.000 679.689 C 304.340 679.693,301.910 680.121,299.600 680.641 M291.200 682.053 C 288.081 682.562,287.774 682.840,290.605 682.592 C 293.297 682.357,296.205 681.659,294.400 681.681 C 293.850 681.688,292.410 681.855,291.200 682.053 M191.629 683.163 C 192.194 683.344,194.084 683.598,195.829 683.727 C 197.794 683.873,198.510 683.837,197.711 683.634 C 195.927 683.180,190.326 682.746,191.629 683.163 M282.838 683.247 C 281.209 683.436,279.769 683.701,279.638 683.835 C 279.332 684.150,285.416 683.592,286.771 683.181 L 287.800 682.869 286.800 682.886 C 286.250 682.896,284.467 683.058,282.838 683.247 M201.000 684.384 C 201.880 684.564,204.490 684.812,206.800 684.934 C 209.475 685.076,210.346 685.039,209.200 684.833 C 206.715 684.387,198.933 683.960,201.000 684.384 M271.837 684.451 C 269.877 684.639,268.167 684.903,268.037 685.038 C 267.748 685.336,275.175 684.828,277.400 684.397 L 279.000 684.088 277.200 684.098 C 276.210 684.104,273.797 684.262,271.837 684.451 M214.400 685.687 C 217.364 686.225,261.092 686.223,264.000 685.685 C 265.646 685.381,264.337 685.344,258.800 685.539 C 249.350 685.872,229.159 685.875,219.600 685.544 C 214.145 685.355,212.778 685.393,214.400 685.687 M89.000 693.807 C 88.780 693.886,85.540 694.151,81.800 694.395 C 78.060 694.640,74.370 695.004,73.600 695.205 C 72.347 695.531,72.409 695.550,74.200 695.390 C 88.961 694.069,100.545 693.935,111.763 694.956 C 115.703 695.314,118.996 695.538,119.081 695.452 C 119.874 694.660,91.021 693.082,89.000 693.807 M67.400 696.000 L 66.200 696.305 67.400 696.323 C 68.060 696.333,69.410 696.197,70.400 696.020 L 72.200 695.700 70.400 695.697 C 69.410 695.696,68.060 695.832,67.400 696.000 M121.600 696.059 C 122.810 696.260,125.298 696.705,127.129 697.049 C 128.960 697.393,130.557 697.577,130.676 697.457 C 130.914 697.220,130.722 697.175,125.400 696.232 C 123.420 695.882,121.260 695.617,120.600 695.645 C 119.827 695.677,120.182 695.825,121.600 696.059 M62.661 696.819 C 61.594 696.998,60.604 697.268,60.461 697.418 C 60.135 697.759,64.314 697.215,65.400 696.775 L 66.200 696.451 65.400 696.472 C 64.960 696.484,63.727 696.641,62.661 696.819 M56.864 698.073 C 55.909 698.287,55.220 698.553,55.332 698.666 C 55.560 698.893,60.000 698.043,60.000 697.772 C 60.000 697.521,58.838 697.633,56.864 698.073 M132.200 697.964 C 132.640 698.148,133.810 698.412,134.800 698.551 C 135.938 698.710,136.306 698.677,135.800 698.461 C 135.360 698.272,134.190 698.008,133.200 697.874 C 132.088 697.723,131.706 697.757,132.200 697.964 M52.480 699.195 C 51.754 699.367,51.034 699.639,50.880 699.800 C 50.568 700.127,52.953 699.677,54.200 699.173 C 55.212 698.765,54.243 698.777,52.480 699.195 M137.200 699.140 C 137.530 699.337,138.520 699.614,139.400 699.757 C 140.406 699.920,140.777 699.884,140.400 699.660 C 140.070 699.463,139.080 699.186,138.200 699.043 C 137.194 698.880,136.823 698.916,137.200 699.140 M48.100 700.448 C 47.385 700.654,46.800 700.903,46.800 701.001 C 46.800 701.255,49.282 700.755,50.000 700.357 C 50.838 699.892,49.862 699.939,48.100 700.448 M141.233 700.156 C 141.325 700.242,143.380 700.964,145.800 701.761 C 148.220 702.559,150.560 703.380,151.000 703.588 C 151.440 703.795,152.970 704.441,154.400 705.023 C 170.160 711.440,181.248 721.394,184.855 732.364 C 185.504 734.338,185.565 734.413,185.369 733.000 C 184.237 724.833,173.878 714.173,160.538 707.446 C 153.337 703.815,139.599 698.627,141.233 700.156 M41.000 702.947 C 36.139 704.820,30.400 707.457,30.400 707.816 C 30.400 707.943,30.535 707.976,30.700 707.890 C 31.090 707.685,34.458 706.143,37.000 705.004 C 38.100 704.511,40.350 703.621,42.000 703.025 C 46.002 701.579,46.735 701.255,46.000 701.253 C 45.670 701.252,43.420 702.014,41.000 702.947 M25.200 710.630 C 17.193 715.627,11.074 721.687,8.162 727.502 C 7.356 729.112,6.791 730.524,6.907 730.640 C 7.023 730.756,7.570 729.864,8.122 728.658 C 11.158 722.026,17.693 715.514,26.611 710.235 C 29.960 708.252,30.252 708.050,29.800 708.028 C 29.580 708.018,27.510 709.189,25.200 710.630 M6.306 731.669 C 6.173 732.015,5.966 733.176,5.846 734.249 L 5.628 736.200 6.203 734.000 C 6.750 731.909,6.819 730.330,6.306 731.669 M185.693 738.800 C 185.703 742.582,185.705 742.589,186.095 740.315 C 186.354 738.803,186.350 737.517,186.085 736.515 C 185.738 735.210,185.684 735.528,185.693 738.800 M5.309 738.800 C 5.309 739.790,5.387 740.195,5.482 739.700 C 5.578 739.205,5.578 738.395,5.482 737.900 C 5.387 737.405,5.309 737.810,5.309 738.800 M5.642 741.816 C 5.352 747.502,12.328 757.650,20.800 763.867 C 23.696 765.992,29.996 769.738,30.249 769.485 C 30.358 769.375,29.402 768.682,28.124 767.943 C 26.846 767.204,25.440 766.382,25.000 766.116 C 24.560 765.849,23.930 765.503,23.600 765.346 C 16.810 762.118,8.232 751.391,6.370 743.800 C 5.992 742.260,5.664 741.367,5.642 741.816 M184.902 744.595 C 184.657 745.692,184.516 746.649,184.588 746.722 C 184.852 746.986,185.656 743.987,185.504 743.303 C 185.418 742.916,185.148 743.498,184.902 744.595 M183.270 748.935 C 180.618 754.931,173.789 761.786,165.622 766.651 C 164.276 767.453,163.262 768.195,163.367 768.301 C 163.849 768.782,172.618 762.601,175.928 759.447 C 179.699 755.853,185.030 748.097,184.260 747.326 C 184.154 747.220,183.708 747.944,183.270 748.935 M159.192 770.127 C 155.656 771.863,154.183 772.511,150.305 774.039 C 149.043 774.536,148.072 775.005,148.147 775.081 C 148.583 775.517,162.104 769.571,162.657 768.700 C 162.917 768.291,163.020 768.248,159.192 770.127 M30.800 769.792 C 30.800 770.269,42.625 775.325,43.252 775.116 C 43.465 775.045,41.876 774.294,39.720 773.448 C 37.564 772.601,34.747 771.389,33.459 770.754 C 31.026 769.554,30.800 769.473,30.800 769.792 M44.200 775.530 C 44.420 775.742,45.230 776.033,46.000 776.175 C 46.911 776.344,47.190 776.308,46.800 776.071 C 45.888 775.519,43.721 775.068,44.200 775.530 M145.400 775.802 L 144.200 776.367 145.400 776.130 C 146.060 775.999,146.870 775.742,147.200 775.558 C 148.277 774.959,146.750 775.165,145.400 775.802 M48.000 776.737 C 48.330 776.941,49.230 777.227,50.000 777.371 C 50.930 777.546,51.199 777.510,50.800 777.263 C 50.470 777.059,49.570 776.773,48.800 776.629 C 47.870 776.454,47.601 776.490,48.000 776.737 M141.656 776.859 C 140.917 777.072,140.404 777.337,140.516 777.449 C 140.745 777.679,144.000 776.871,144.000 776.585 C 144.000 776.320,143.203 776.414,141.656 776.859 M52.200 777.977 C 54.258 778.808,64.216 780.903,65.113 780.694 C 65.491 780.606,64.900 780.396,63.800 780.228 C 62.700 780.060,59.673 779.400,57.072 778.761 C 52.457 777.628,50.590 777.327,52.200 777.977 M135.200 778.611 C 133.330 779.118,132.120 779.548,132.511 779.566 C 133.230 779.600,139.660 778.038,139.967 777.754 C 140.355 777.395,138.371 777.751,135.200 778.611 M128.400 780.053 C 127.190 780.250,126.020 780.500,125.800 780.609 C 125.076 780.966,129.904 780.410,130.863 780.026 C 132.001 779.570,131.311 779.578,128.400 780.053 M66.623 781.162 C 67.076 781.358,68.876 781.619,70.623 781.743 C 72.836 781.900,73.314 781.867,72.200 781.633 C 69.616 781.090,65.686 780.758,66.623 781.162 M121.259 781.231 C 117.609 781.704,117.287 782.041,120.742 781.772 C 123.473 781.560,126.704 780.809,124.600 780.876 C 124.160 780.890,122.657 781.050,121.259 781.231 M75.200 782.398 C 75.970 782.588,79.030 782.835,82.000 782.947 C 86.538 783.118,86.857 783.096,84.000 782.808 C 78.216 782.225,73.634 782.012,75.200 782.398 M110.400 782.447 C 103.925 782.965,103.643 783.160,109.689 782.938 C 114.630 782.757,120.051 782.028,116.000 782.090 C 115.230 782.102,112.710 782.262,110.400 782.447 M92.300 783.498 C 94.115 783.572,97.085 783.572,98.900 783.498 C 100.715 783.423,99.230 783.363,95.600 783.363 C 91.970 783.363,90.485 783.423,92.300 783.498 " stroke="none" fill="#9cc3f9" fill-rule="evenodd"></path></g></svg>